<svg width="150" height="23" viewBox="0 0 150 23" fill="none" xmlns="http://www.w3.org/2000/svg">
<path d="M11.8098 0.712105C11.8359 1.41038 11.8206 2.10866 11.819 2.83616H7.13057V15.0083C6.94753 15.0652 5.07246 15.0806 4.71867 15.0314C4.71252 14.3623 4.71714 13.6871 4.7156 13.0119C4.7156 12.3336 4.7156 11.6554 4.7156 10.9771C4.7156 10.2988 4.7156 9.62052 4.7156 8.94223C4.7156 8.26395 4.7156 7.60259 4.7156 6.932C4.7156 6.25371 4.7156 5.57543 4.7156 4.89715C4.7156 4.21887 4.7156 3.5452 4.7156 2.83308C3.14356 2.83154 1.5992 2.83308 0.0317744 2.83308C0.0194688 2.75157 0.00101037 2.68543 0.00101037 2.61775C-0.000527827 2.05944 -0.000527827 1.49959 0.00254858 0.939737C0.00254858 0.862834 0.0333126 0.78747 0.0502328 0.712105H11.8098Z" fill="white"/>
<path d="M53.5858 0.712109C53.5996 0.749023 53.6242 0.785936 53.6242 0.822849C53.6273 1.1766 53.6258 1.53035 53.6258 1.91487C53.1074 1.93948 52.6044 1.9241 52.1014 1.92563C51.5954 1.92871 51.0908 1.92563 50.5848 1.92563C50.0787 1.92563 49.5895 1.92563 49.0912 1.92563C48.5851 1.92563 48.0806 1.92563 47.5745 1.92563C47.0715 1.92563 46.567 1.92563 46.0732 1.92563C46.0163 2.13635 46.0086 6.82741 46.0609 7.09965H53.1997C53.2182 7.18578 53.2412 7.25192 53.2428 7.31805C53.2474 7.57798 53.2489 7.83791 53.2428 8.09938C53.2397 8.28549 53.2197 8.30087 53.0367 8.30856C52.9505 8.31163 52.8628 8.30856 52.7767 8.30856C50.6509 8.30856 48.5251 8.30856 46.4009 8.30856C46.2916 8.30856 46.184 8.30856 46.0517 8.30856C46.004 8.78843 46.0348 9.2437 46.0286 9.69742C46.0225 10.1619 46.0286 10.6279 46.0286 11.0924C46.0286 11.5492 46.0286 12.0076 46.0286 12.4644C46.0286 12.9196 46.0286 13.3764 46.0286 13.8548C46.1624 13.8625 46.2701 13.8732 46.3778 13.8732C48.7558 13.8732 51.1339 13.8732 53.512 13.8748C53.6196 13.8748 53.7288 13.8855 53.8534 13.8917V15.0114C53.6842 15.0652 45.0072 15.0775 44.7242 15.0206C44.7196 14.9345 44.7088 14.8438 44.7088 14.7515C44.7088 10.1773 44.7088 5.60466 44.7104 1.03049C44.7104 0.924361 44.7473 0.816697 44.7673 0.710571C47.7068 0.710571 50.6478 0.710571 53.5873 0.710571L53.5858 0.712109Z" fill="white"/>
<path d="M41.9678 0.712109C41.9755 0.821311 41.9878 0.932051 41.9878 1.04125C41.9878 5.61389 41.9878 10.1881 41.9878 14.7607C41.9878 14.8468 41.9878 14.933 41.9878 15.0375H39.7112C39.7066 14.956 39.6974 14.8807 39.6974 14.8038C39.6974 10.1988 39.6974 5.59389 39.6974 0.988959C39.6974 0.896676 39.7235 0.804393 39.7358 0.710571C40.4788 0.710571 41.2217 0.710571 41.9647 0.710571L41.9678 0.712109Z" fill="white"/>
<path d="M77.9109 0.712105V2.4701C77.8555 2.48702 77.8263 2.50394 77.7971 2.50548C77.4833 2.50855 77.168 2.51317 76.8542 2.50855C76.6927 2.50701 76.665 2.48394 76.665 2.33629C76.665 1.7949 76.6727 1.2535 76.6788 0.712105C77.0895 0.712105 77.5002 0.712105 77.9125 0.712105H77.9109Z" fill="white"/>
<path d="M30.9112 7.96404C30.7127 8.02094 28.9053 8.01479 28.6977 7.9425C28.7146 7.78562 28.7208 7.62105 28.7546 7.46109C28.9853 6.32908 29.6237 5.50469 30.662 5.00174C31.228 4.72797 31.8387 4.59877 32.4663 4.55571C33.1308 4.5111 33.7953 4.53725 34.4444 4.70028C35.5704 4.98329 36.4256 5.60005 36.8578 6.71513C37.0071 7.09965 37.1055 7.49493 37.1301 7.90713C37.1486 8.20551 37.1624 8.50543 37.164 8.80535C37.1686 10.1142 37.1578 11.4231 37.1763 12.732C37.184 13.2672 37.2393 13.8025 37.2885 14.3347C37.3101 14.5669 37.3701 14.7961 37.4162 15.0437H35.3704C35.2227 14.613 35.2504 14.1547 35.1628 13.6887C35.1135 13.744 35.0612 13.7963 35.0151 13.8532C34.589 14.39 34.0552 14.7868 33.4077 15.0129C32.6355 15.2836 31.8387 15.3498 31.0265 15.2313C30.562 15.1637 30.1236 15.0283 29.7144 14.7899C28.8469 14.2824 28.3731 13.5241 28.2855 12.5321C28.227 11.883 28.3208 11.2585 28.6838 10.6972C28.933 10.3126 29.2776 10.0296 29.6714 9.80509C30.2251 9.48979 30.8235 9.29599 31.4449 9.17448C32.0017 9.06528 32.5632 8.97761 33.1262 8.90532C33.6507 8.83611 34.1783 8.7992 34.7044 8.74844C34.9459 8.72537 34.9628 8.71768 34.9505 8.47621C34.9351 8.18705 34.9182 7.89328 34.8659 7.60874C34.7213 6.80588 34.0891 6.28909 33.2815 6.24141C32.8631 6.21681 32.4494 6.21065 32.0448 6.37369C31.6295 6.54134 31.3111 6.80588 31.1404 7.21962C31.0434 7.45648 30.9865 7.71026 30.9096 7.96557L30.9112 7.96404ZM34.9459 10.2188C34.709 10.2342 34.5059 10.2404 34.3044 10.2604C34.0137 10.2896 33.7245 10.3311 33.4338 10.3603C32.8601 10.4188 32.2909 10.5095 31.7387 10.6741C31.5095 10.7418 31.2834 10.8587 31.0865 10.9971C30.6835 11.2832 30.5605 11.7077 30.5881 12.1829C30.6266 12.8289 31.0096 13.3149 31.6818 13.498C32.3248 13.6733 32.9462 13.6072 33.5569 13.3595C34.0876 13.1442 34.4613 12.7689 34.6998 12.2598C34.9966 11.6231 34.9551 10.9417 34.9459 10.2188Z" fill="white"/>
<path d="M9.71321 9.93582C9.73167 9.34213 9.77474 8.72844 9.93779 8.13014C10.207 7.14271 10.6869 6.2814 11.4852 5.62157C11.9328 5.25244 12.4343 4.98636 12.9911 4.80948C14.0602 4.46803 15.1415 4.44342 16.2183 4.71258C17.5827 5.05249 18.5963 5.85997 19.2116 7.13809C19.5731 7.88713 19.75 8.68076 19.7807 9.50977C19.8007 10.0389 19.8007 10.5664 19.7192 11.0909C19.5085 12.4275 18.9701 13.5887 17.8657 14.4254C17.3596 14.8099 16.7812 15.0514 16.1598 15.2052C15.4415 15.3836 14.717 15.3882 13.9925 15.3159C13.2403 15.2406 12.5312 14.9991 11.8913 14.5823C10.9915 13.9947 10.4069 13.1703 10.0578 12.166C9.80858 11.4493 9.73321 10.7079 9.71321 9.93582ZM17.4011 9.9758C17.3904 9.18217 17.3042 8.40237 16.9197 7.68872C16.4705 6.85509 15.7922 6.37983 14.8185 6.36291C14.0217 6.34907 13.3787 6.63823 12.885 7.26421C12.562 7.67487 12.3635 8.1486 12.2651 8.65154C12.0482 9.77586 12.0467 10.8971 12.5004 11.9737C12.8619 12.835 13.4772 13.4103 14.4447 13.5287C14.9908 13.5948 15.5122 13.5149 15.9937 13.2273C16.5028 12.9243 16.8259 12.4721 17.052 11.9399C17.3196 11.3124 17.3873 10.6495 17.4011 9.9758Z" fill="white"/>
<path d="M115.951 15.0406H114.719C114.712 14.9191 114.703 14.8099 114.703 14.7022C114.703 12.692 114.706 10.6802 114.699 8.67C114.699 8.30855 114.672 7.94404 114.612 7.58721C114.525 7.06581 114.309 6.59055 113.9 6.23526C113.328 5.74 112.656 5.62004 111.928 5.75538C111.033 5.92149 110.444 6.47212 110.07 7.27344C109.786 7.88559 109.692 8.53772 109.69 9.20524C109.687 10.6556 109.69 12.1075 109.69 13.5579C109.69 13.9594 109.69 14.3623 109.69 14.7638C109.69 14.8484 109.69 14.9345 109.69 15.036H108.495C108.432 14.8376 108.432 5.0648 108.498 4.84639H109.667C109.729 5.26013 109.655 5.6754 109.707 6.09068C109.841 6.09376 109.876 5.98609 109.927 5.91996C110.13 5.66618 110.364 5.44777 110.622 5.25398C111.373 4.69566 112.221 4.54186 113.133 4.66337C113.96 4.7741 114.64 5.14785 115.154 5.8046C115.294 5.98302 115.395 6.19065 115.514 6.38445C115.549 6.44289 115.583 6.50442 115.634 6.59208C115.686 6.51826 115.725 6.47212 115.754 6.41982C116.152 5.73385 116.691 5.20168 117.433 4.89254C118.101 4.61569 118.795 4.57723 119.502 4.66644C120.184 4.75103 120.77 5.02481 121.245 5.52468C121.525 5.81998 121.724 6.16758 121.868 6.54441C122.068 7.07042 122.17 7.61951 122.196 8.1809C122.205 8.40084 122.21 8.62232 122.21 8.8438C122.21 10.8079 122.21 12.7704 122.21 14.7345V15.0452C121.797 15.0606 121.407 15.0514 120.991 15.0514C120.984 14.9299 120.973 14.8222 120.973 14.7146C120.973 12.8381 120.979 10.9617 120.967 9.08373C120.964 8.58079 120.921 8.07631 120.861 7.57644C120.811 7.17655 120.665 6.79972 120.428 6.46596C120.116 6.02608 119.672 5.81998 119.153 5.73847C117.949 5.54928 116.83 6.08607 116.309 7.24422C116.075 7.76408 115.961 8.30855 115.957 8.87148C115.946 10.3388 115.952 11.8046 115.951 13.2719C115.951 13.7686 115.951 14.2654 115.951 14.7622C115.951 14.8484 115.951 14.933 115.951 15.0375V15.0406Z" fill="white"/>
<path d="M22.3311 6.61516C22.2003 6.60747 22.1157 6.59978 22.0296 6.59978C21.642 6.59824 21.2559 6.59978 20.8683 6.59824C20.6391 6.5967 20.6221 6.57825 20.6206 6.3583C20.6175 5.92457 20.6206 5.49084 20.6206 5.05711C20.6206 4.99559 20.6314 4.93406 20.6406 4.84332H22.3172C22.3234 4.73104 22.3311 4.64645 22.3311 4.56339C22.3311 3.93279 22.3311 3.30219 22.3311 2.67159C22.3311 2.61622 22.3311 2.56085 22.3311 2.50548C22.3372 2.30092 22.3495 2.29015 22.5449 2.284C22.5772 2.284 22.608 2.284 22.6403 2.284C23.2017 2.284 23.7616 2.284 24.3231 2.284C24.4077 2.284 24.4923 2.284 24.603 2.284C24.6399 2.72542 24.6168 3.14069 24.6199 3.55597C24.6245 3.97124 24.6199 4.38806 24.6199 4.83255H26.5873C26.5981 4.92176 26.6119 4.98174 26.6119 5.04173C26.6134 5.48315 26.615 5.92457 26.6119 6.36599C26.6119 6.5844 26.5996 6.5967 26.3858 6.59824C25.8966 6.60132 25.4059 6.59824 24.9168 6.60132C24.826 6.60132 24.7353 6.61823 24.6184 6.63054C24.6184 6.7382 24.6184 6.8228 24.6184 6.90893C24.6184 8.48543 24.6153 10.0635 24.6215 11.64C24.6215 11.8907 24.6522 12.1429 24.6968 12.3906C24.7968 12.935 25.1198 13.2073 25.6521 13.2888C25.9905 13.3411 26.3273 13.3134 26.6888 13.2273C26.698 13.3165 26.7134 13.3903 26.7134 13.4641C26.715 13.9055 26.7165 14.347 26.7134 14.7884C26.7134 15.0145 26.698 15.0145 26.4811 15.0606C26.0228 15.1575 25.5628 15.219 25.0937 15.1837C24.5492 15.1421 24.0154 15.0637 23.5247 14.7899C23.0771 14.5408 22.7741 14.1747 22.591 13.7071C22.4188 13.2703 22.3403 12.812 22.3357 12.3444C22.328 11.4616 22.328 10.5787 22.3265 9.69588C22.3265 8.77305 22.3265 7.85022 22.3265 6.92892C22.3265 6.83664 22.3265 6.74282 22.3265 6.61977L22.3311 6.61516Z" fill="white"/>
<path d="M125.321 10.225C125.358 10.5526 125.383 10.8417 125.428 11.1278C125.54 11.8707 125.789 12.5628 126.275 13.1473C126.79 13.7656 127.453 14.1239 128.259 14.2208C128.681 14.2716 129.101 14.2654 129.51 14.1839C130.453 13.9963 131.17 13.4918 131.582 12.6028C131.645 12.4675 131.69 12.3244 131.733 12.1814C131.762 12.0845 131.814 12.0291 131.914 12.0291C132.276 12.0291 132.639 12.0291 133.008 12.0291C133.059 12.226 132.992 12.3906 132.939 12.549C132.66 13.3688 132.191 14.0517 131.468 14.5454C130.988 14.873 130.464 15.0883 129.891 15.2083C129.407 15.3098 128.921 15.3544 128.432 15.3221C127.396 15.2529 126.46 14.9283 125.686 14.2085C125.108 13.6718 124.714 13.0165 124.463 12.2767C124.031 10.994 123.949 9.68204 124.209 8.35778C124.418 7.29037 124.88 6.346 125.714 5.61696C126.144 5.24014 126.638 4.97252 127.189 4.80179C128.064 4.5311 128.952 4.50495 129.833 4.71566C130.956 4.98482 131.823 5.62465 132.405 6.63516C132.706 7.15963 132.889 7.7241 133.006 8.31471C133.109 8.8438 133.132 9.37904 133.145 9.91429C133.151 10.1988 133.145 10.2034 132.855 10.2034C130.667 10.2034 128.478 10.2034 126.289 10.2034C126.06 10.2034 125.831 10.2019 125.601 10.2034C125.524 10.2034 125.449 10.2157 125.321 10.225ZM128.642 9.16833C129.124 9.16833 129.605 9.16833 130.087 9.16833C130.631 9.16833 131.176 9.16987 131.722 9.16833C131.909 9.16833 131.939 9.13757 131.922 8.96685C131.856 8.26857 131.682 7.60413 131.293 7.01044C130.904 6.41829 130.371 6.01686 129.69 5.79999C129.235 5.65541 128.773 5.65388 128.307 5.67541C127.767 5.70156 127.272 5.87997 126.832 6.18758C125.855 6.86894 125.489 7.87329 125.372 9.00222C125.361 9.10835 125.406 9.16833 125.517 9.16833C125.58 9.16833 125.643 9.16833 125.706 9.16833C126.686 9.16833 127.664 9.16833 128.644 9.16833H128.642Z" fill="white"/>
<path d="M91.2656 15.3298C90.4319 15.3267 89.6336 15.1591 88.9029 14.7499C88.3153 14.4223 87.8431 13.964 87.4832 13.3934C87.0771 12.7505 86.8433 12.0491 86.7156 11.3032C86.5848 10.5341 86.571 9.76356 86.6571 8.99299C86.7633 8.04248 87.0294 7.14271 87.5924 6.35062C88.1307 5.59543 88.8398 5.07711 89.7335 4.80795C90.5596 4.56032 91.3917 4.52187 92.2393 4.66798C93.1207 4.81871 93.8851 5.19246 94.5173 5.82306C95.005 6.30909 95.3449 6.89201 95.5649 7.54107C95.911 8.56388 96.0079 9.61283 95.9094 10.6879C95.8464 11.377 95.7125 12.043 95.4433 12.6797C95.0311 13.6594 94.3666 14.4146 93.4021 14.8776C92.7315 15.199 92.0116 15.3344 91.2671 15.3298H91.2656ZM87.8877 9.95735C87.9246 10.3173 87.9569 10.6772 88 11.0355C88.0769 11.6846 88.2769 12.2952 88.6337 12.8458C89.1629 13.6625 89.915 14.1286 90.8918 14.207C91.1656 14.2285 91.444 14.2208 91.7194 14.2039C92.2362 14.1716 92.7023 13.984 93.1222 13.6902C93.8036 13.2119 94.1913 12.5321 94.4204 11.7492C94.5481 11.317 94.6066 10.8725 94.6327 10.4234C94.685 9.51747 94.6142 8.63001 94.2881 7.77332C94.0836 7.235 93.7852 6.75974 93.3406 6.38753C92.5254 5.70463 91.5763 5.56006 90.5596 5.73847C90.1688 5.80768 89.8028 5.95687 89.4736 6.18297C88.7875 6.65669 88.3876 7.32882 88.1569 8.11015C87.98 8.70999 87.9 9.32675 87.8862 9.95581L87.8877 9.95735Z" fill="white"/>
<path d="M64.1517 15.0437H62.9119C62.9073 14.9422 62.8981 14.8438 62.8981 14.7453C62.8981 12.7981 62.8981 10.8494 62.8981 8.90225C62.8981 8.40392 62.8689 7.90867 62.7335 7.42572C62.5689 6.83818 62.2828 6.33831 61.7306 6.02763C61.5014 5.89843 61.2553 5.82306 60.9969 5.77385C60.1201 5.60774 59.2987 5.73232 58.5588 6.25064C58.1081 6.56441 57.7943 6.99199 57.5867 7.49801C57.379 8.00249 57.3098 8.5285 57.3113 9.0699C57.3159 10.1419 57.3113 11.2139 57.3113 12.2875C57.3113 13.115 57.3113 13.944 57.3113 14.7715V15.0422H56.0715V4.87562C56.25 4.82487 56.9975 4.81718 57.279 4.86793V6.11376C57.4052 6.14913 57.4329 6.07531 57.4744 6.02147C57.7789 5.63235 58.1466 5.3232 58.5834 5.08787C59.1003 4.80949 59.6509 4.66491 60.2339 4.63722C60.9184 4.60493 61.5891 4.66491 62.2243 4.95406C62.7089 5.17554 63.1027 5.497 63.4072 5.93227C63.7256 6.38599 63.9087 6.89201 64.0179 7.43033C64.1194 7.92712 64.1502 8.43007 64.1502 8.93455C64.1502 10.8663 64.1502 12.7981 64.1502 14.7299C64.1502 14.8299 64.1502 14.9299 64.1502 15.0422L64.1517 15.0437Z" fill="white"/>
<path d="M106.2 15.0452H104.959C104.959 14.9345 104.959 14.8345 104.959 14.7345C104.959 12.7874 104.959 10.8402 104.959 8.89302C104.959 8.41007 104.92 7.93327 104.797 7.46417C104.713 7.14271 104.589 6.83818 104.393 6.56748C104.096 6.16297 103.696 5.92303 103.208 5.80614C102.627 5.66772 102.048 5.66464 101.475 5.83075C100.858 6.00917 100.352 6.35984 99.981 6.88586C99.5888 7.44263 99.3888 8.06708 99.3827 8.74536C99.3719 10.0143 99.375 11.2847 99.3734 12.5536C99.3734 13.2949 99.3734 14.0363 99.3734 14.7776C99.3734 14.8622 99.3734 14.9468 99.3734 15.0437H98.129V4.86332C98.3259 4.80948 98.5228 4.84332 98.7166 4.83717C98.9058 4.83102 99.095 4.83717 99.3088 4.83717C99.3211 4.92945 99.3396 5.01097 99.3411 5.09402C99.3442 5.36934 99.3411 5.64618 99.3427 5.9215C99.3427 5.99686 99.3534 6.07069 99.3642 6.19219C99.4411 6.11683 99.4903 6.08145 99.5242 6.03531C99.9949 5.42009 100.61 5.02327 101.348 4.79872C102.078 4.57724 102.822 4.56493 103.553 4.7172C104.848 4.98636 105.642 5.80614 105.988 7.07504C106.154 7.68103 106.212 8.29779 106.212 8.92224C106.212 10.8771 106.212 12.8335 106.212 14.7884C106.212 14.8653 106.205 14.9437 106.2 15.0468V15.0452Z" fill="white"/>
<path d="M135.323 15.0406C135.323 11.68 135.323 8.34547 135.324 5.01097C135.324 4.95868 135.349 4.90792 135.363 4.8464H136.536C136.573 5.27244 136.532 5.70156 136.561 6.12606C136.578 6.13375 136.596 6.1399 136.613 6.14759C136.679 6.07838 136.75 6.01224 136.81 5.93688C137.221 5.4124 137.762 5.06942 138.378 4.84794C139.004 4.62338 139.657 4.58954 140.319 4.6526C140.708 4.68952 141.079 4.77872 141.439 4.93099C142.139 5.22784 142.634 5.73385 142.952 6.41367C143.258 7.06581 143.394 7.76101 143.401 8.47621C143.414 9.59591 143.408 10.7156 143.408 11.8353C143.408 12.8135 143.408 13.7917 143.408 14.7684C143.408 14.853 143.408 14.9391 143.408 15.0375H142.186C142.18 14.9283 142.168 14.8207 142.168 14.713C142.168 12.8197 142.172 10.9279 142.163 9.03452C142.16 8.60233 142.131 8.16552 142.063 7.73948C141.968 7.1381 141.742 6.58901 141.243 6.19066C140.954 5.95841 140.619 5.83383 140.256 5.76769C139.297 5.59082 138.418 5.74924 137.652 6.3783C137.113 6.82126 136.816 7.4088 136.666 8.07939C136.586 8.43622 136.566 8.79612 136.566 9.16064C136.569 11.014 136.566 12.8673 136.566 14.7207V15.036H135.32L135.323 15.0406Z" fill="white"/>
<path d="M70.003 13.7871C71.0813 10.8094 72.1596 7.83176 73.2409 4.84947H74.5623C74.5377 4.94637 74.5269 5.02942 74.4977 5.10633C74.1946 5.91688 73.8885 6.7259 73.584 7.53645C73.3332 8.20704 73.0841 8.87764 72.8333 9.54823C72.5703 10.2557 72.3057 10.9632 72.0427 11.6707C71.7812 12.3706 71.5182 13.0704 71.2567 13.7702C71.0998 14.1901 70.9413 14.61 70.7783 15.0437H69.1524C68.8402 14.2055 68.5248 13.3611 68.2095 12.5151C67.8895 11.66 67.5696 10.8064 67.2481 9.95274C66.9312 9.10527 66.6128 8.25934 66.2975 7.41187C65.9837 6.56748 65.6545 5.7277 65.3454 4.85101H66.6897C67.2281 6.33985 67.7696 7.8333 68.3095 9.32675C68.8494 10.8171 69.3893 12.3075 69.9307 13.7979C69.9554 13.7948 69.9784 13.7917 70.003 13.7902V13.7871Z" fill="white"/>
<path d="M11.6206 22.2879H0.0179297C0.0117769 22.2049 0.00100949 22.1372 0.00100949 22.068C0.00100949 21.5481 -0.000528708 21.0267 0.00100949 20.5069C0.00100949 20.2469 0.0102387 20.2392 0.26558 20.2377C1.14235 20.2377 2.01913 20.2377 2.8959 20.2377C5.67697 20.2377 8.45804 20.2377 11.2391 20.2377C11.6852 20.2377 11.619 20.2592 11.6206 20.6299C11.6237 21.0867 11.6206 21.5451 11.6206 22.0019C11.6206 22.088 11.6206 22.1726 11.6206 22.2895V22.2879Z" fill="white"/>
<path d="M149.97 15.016C149.36 15.156 148.802 15.1544 148.245 15.0483C147.525 14.9114 147.015 14.5146 146.77 13.8071C146.599 13.3149 146.578 12.8028 146.576 12.2906C146.572 10.3126 146.576 8.33316 146.575 6.35523C146.575 5.83075 146.607 5.89381 146.098 5.89073C145.75 5.88766 145.403 5.89073 145.055 5.89073C144.97 5.89073 144.884 5.89073 144.809 5.89073C144.738 5.70309 144.726 5.12786 144.783 4.84332H146.55C146.559 4.73258 146.575 4.64337 146.575 4.55263C146.576 3.96971 146.575 3.38524 146.575 2.80232C146.575 2.73157 146.567 2.65774 146.585 2.59161C146.598 2.54854 146.649 2.48394 146.684 2.48394C147.052 2.47318 147.421 2.45318 147.814 2.49625V4.82486H149.873C149.88 4.92945 149.89 5.01251 149.891 5.09556C149.894 5.28474 149.894 5.47392 149.891 5.6631C149.888 5.87997 149.883 5.88766 149.659 5.8892C149.208 5.89227 148.759 5.8892 148.308 5.8892C148.205 5.8892 148.102 5.88458 148.001 5.89227C147.847 5.9015 147.825 5.92611 147.816 6.07684C147.813 6.12452 147.816 6.17066 147.816 6.21834C147.816 8.24396 147.813 10.2696 147.819 12.2967C147.819 12.5474 147.85 12.7997 147.891 13.0473C147.979 13.5672 148.284 13.8886 148.808 13.9947C149.082 14.0501 149.356 14.0609 149.633 14.0194C149.739 14.004 149.846 13.9947 149.977 13.9809C150 14.3516 150.017 14.6899 149.97 15.0175V15.016Z" fill="white"/>
<path d="M85.6419 4.83871V5.97841C85.5681 5.97841 85.5004 5.98148 85.4327 5.97841C84.9328 5.94765 84.4375 5.9661 83.9545 6.11222C83.3469 6.29525 82.8501 6.63669 82.4871 7.16271C82.1625 7.63335 81.9841 8.15937 81.9087 8.71768C81.861 9.07605 81.8379 9.44057 81.8364 9.80201C81.8287 11.4416 81.8333 13.0811 81.8333 14.7207C81.8333 14.8222 81.8333 14.9222 81.8333 15.0406H80.6366C80.5828 14.8668 80.5735 5.10787 80.6289 4.85255H81.7841C81.7918 4.92945 81.8056 5.01097 81.8072 5.09402C81.8103 5.44009 81.8072 5.78769 81.8087 6.13375C81.8087 6.20911 81.8179 6.28448 81.8226 6.37369C81.9579 6.35984 81.9841 6.25218 82.0348 6.18604C82.2702 5.87689 82.5394 5.60773 82.8608 5.38472C83.4223 4.99559 84.0468 4.80948 84.7221 4.77719C85.022 4.76181 85.322 4.75411 85.6419 4.84025V4.83871Z" fill="white"/>
<path d="M77.8971 15.0437H76.7034C76.6542 14.8499 76.6434 5.12786 76.6926 4.8587C76.8788 4.81102 77.0757 4.84332 77.2695 4.83717C77.4664 4.83101 77.6633 4.83717 77.8478 4.83717C77.8663 4.85408 77.8725 4.8587 77.8771 4.86485C77.8832 4.871 77.8909 4.87562 77.8925 4.88177C77.8986 4.90484 77.9063 4.92791 77.9063 4.95098C77.9063 8.2701 77.9078 11.5877 77.9078 14.9068C77.9078 14.9453 77.9017 14.9837 77.8971 15.0452V15.0437Z" fill="white"/>
</svg>
